<?xml version="1.0" encoding="utf-8"?>
<!-- Generator: Adobe Illustrator 25.4.1, SVG Export Plug-In . SVG Version: 6.00 Build 0)  -->
<svg version="1.1" id="Layer_1" xmlns="http://www.w3.org/2000/svg" xmlns:xlink="http://www.w3.org/1999/xlink" x="0px" y="0px"
	 viewBox="0 0 417 424" style="enable-background:new 0 0 417 424;" xml:space="preserve">
<style type="text/css">
	.st0{clip-path:url(#SVGID_00000052105496753573199670000008912108589634355390_);fill:#76153E;}
	.st1{clip-path:url(#SVGID_00000052105496753573199670000008912108589634355390_);fill:#FAAC03;}
	.st2{clip-path:url(#SVGID_00000052105496753573199670000008912108589634355390_);fill:#FFFFFF;}
	.st3{fill:#76153E;}
	.st4{clip-path:url(#SVGID_00000176765005702280431080000001283716147156092544_);fill:#76153E;}
</style>
<g>
	<defs>
		<rect id="SVGID_1_" x="-12" y="-8.2" width="442.2" height="442.2"/>
	</defs>
	<clipPath id="SVGID_00000054263405381119166220000016005966646257262229_">
		<use xlink:href="#SVGID_1_"  style="overflow:visible;"/>
	</clipPath>
	<path style="clip-path:url(#SVGID_00000054263405381119166220000016005966646257262229_);fill:#76153E;" d="M353.92,216.27
		c0,84.7-65.44,153.36-146.17,153.36S61.58,300.96,61.58,216.27S127.02,62.91,207.75,62.91S353.92,131.57,353.92,216.27"/>
	<path style="clip-path:url(#SVGID_00000054263405381119166220000016005966646257262229_);fill:#FAAC03;" d="M347.93,180.07
		c-7.24-30.75-24.88-58.63-49.67-78.51c-25.53-20.48-56.36-31.3-89.16-31.3c-32.75,0-63.55,10.8-89.06,31.22
		c-24.77,19.83-42.42,47.65-49.71,78.35l-3.24,13.64l-2.26-11.92L9.01,166.99l0.7-2.86c10.7-43.88,36.16-83.62,71.7-111.91
		C118.03,23.07,162.19,7.66,209.1,7.66c46.91,0,91.07,15.41,127.7,44.57c35.54,28.29,61,68.04,71.7,111.93l0.7,2.86l-55.69,14.53
		l-2.18,12.93L347.93,180.07z"/>
	<path style="clip-path:url(#SVGID_00000054263405381119166220000016005966646257262229_);fill:#76153E;" d="M209.1,10.65
		c95.15,0,174.93,65.71,196.49,154.21l-54.71,14.27l-0.04,0.26C335.7,115.12,277.99,67.28,209.1,67.28
		c-68.8,0-126.45,47.72-141.68,111.86l0-0.01l-54.81-14.3C34.18,76.34,113.96,10.65,209.1,10.65 M209.1,4.67
		c-23.96,0-47.44,4.04-69.81,11.99c-21.61,7.69-41.72,18.87-59.74,33.22C43.49,78.58,17.66,118.9,6.81,163.42l-1.39,5.71l5.69,1.48
		l51.07,13.32l4.25,25.29l6.82-28.71c7.13-30.05,24.42-57.29,48.67-76.7c12.12-9.7,25.64-17.26,40.19-22.46
		c15.05-5.38,30.87-8.11,47.01-8.11c16.16,0,32,2.73,47.07,8.13c14.56,5.21,28.1,12.79,40.22,22.51
		c24.27,19.47,41.55,46.76,48.63,76.87l6.77,28.75l4.33-25.57l50.98-13.3l5.69-1.48l-1.39-5.71
		c-10.85-44.53-36.68-84.86-72.74-113.56c-18.03-14.35-38.13-25.53-59.75-33.22C256.54,8.71,233.06,4.67,209.1,4.67"/>
	<path style="clip-path:url(#SVGID_00000054263405381119166220000016005966646257262229_);fill:#FAAC03;" d="M209.1,418.13
		c-56.41,0-109.01-22.43-148.09-63.15l-2.21-2.31l44.34-37.19l-4.13-10.87l9.77,9.66c26.88,26.6,62.51,41.24,100.31,41.24
		c37.89,0,73.57-14.7,100.47-41.4l9.47-9.4l-3.9,10.74l44.31,37.16l-2.21,2.3C318.15,395.69,265.54,418.13,209.1,418.13"/>
	<path style="clip-path:url(#SVGID_00000054263405381119166220000016005966646257262229_);fill:#76153E;" d="M311.67,316.25
		l-0.06,0.16l43.47,36.45c-36.81,38.38-88.6,62.28-145.98,62.28c-57.35,0-109.13-23.88-145.93-62.23l43.52-36.5l0-0.01
		c26.31,26.03,62.48,42.11,102.41,42.11C249.11,358.52,285.35,342.38,311.67,316.25 M326.37,293.24l-18.91,18.77
		c-26.33,26.14-61.27,40.53-98.36,40.53c-37.01,0-71.89-14.34-98.21-40.38L92.5,293.97l7.18,20.52l-40.36,33.85l-4.9,4.11l4.42,4.61
		c19.23,20.04,41.84,35.8,67.19,46.84c26.25,11.43,54.19,17.23,83.06,17.23c28.87,0,56.83-5.8,83.09-17.24
		c25.36-11.05,47.97-26.82,67.2-46.87l4.42-4.61l-4.89-4.1l-40.26-33.77L326.37,293.24z"/>
	<path style="clip-path:url(#SVGID_00000054263405381119166220000016005966646257262229_);fill:#FAAC03;" d="M72.42,338.09
		c-1.28-1.18-31.54-29.49-44.65-80.18c-13.11-50.72-2.47-81.93-2.01-83.24l0.87-2.46l42.62,8.79l19.28-16.15l-3.2,9.88
		c-3.85,11.9-5.8,24.29-5.8,36.83c0,36.08,17.22,73.34,44.95,97.23l5.87,5.06l-22.85,0.57l-33.24,25.37L72.42,338.09z"/>
	<path style="clip-path:url(#SVGID_00000054263405381119166220000016005966646257262229_);fill:#76153E;" d="M82.49,173.81
		c-3.86,11.94-5.95,24.61-5.95,37.75c0,12.08,1.9,24.19,5.39,35.86c0.46,1.55,0.95,3.09,1.47,4.62c7.77,23,21.66,43.96,39.13,59.01
		l-16.07,0.4l-32.02,24.44c0,0-30.74-28.3-43.78-78.73c-13.04-50.42-2.08-81.5-2.08-81.5l41.48,8.56L82.49,173.81 M94.56,155.9
		l-15.91,13.33l-10.22,8.56l-38.65-7.97l-5.11-1.05l-1.73,4.92c-0.47,1.34-11.41,33.38,1.93,84.98
		c13.33,51.54,44.21,80.42,45.52,81.63l3.69,3.4l3.99-3.04l30.48-23.26l14.13-0.35l15.49-0.38l-11.74-10.12
		c-13-11.21-23.98-25.89-31.76-42.45c-7.95-16.95-12.15-35.11-12.15-52.52c0-12.22,1.9-24.31,5.66-35.91L94.56,155.9z"/>
	<path style="clip-path:url(#SVGID_00000054263405381119166220000016005966646257262229_);fill:#FAAC03;" d="M312.17,314.42
		l-22.85-0.56l5.87-5.06c27.73-23.89,44.95-61.15,44.95-97.24c0-12.54-1.95-24.93-5.81-36.83l-3.38-10.43l18.8,16.68l43.2-9.42
		l0.87,2.5c0.46,1.33,11.18,33.14-1.93,83.85c-13.11,50.69-43.37,79-44.65,80.18l-1.84,1.7L312.17,314.42z"/>
	<path style="clip-path:url(#SVGID_00000054263405381119166220000016005966646257262229_);fill:#76153E;" d="M337.18,173.81
		l11.74,10.41l42.09-9.18c0,0,11.03,31.7-2,82.12c-13.04,50.42-43.78,78.73-43.78,78.73l-32.02-24.44l-16.07-0.4
		c27.4-23.61,45.99-61.74,45.99-99.5C343.13,198.42,341.05,185.75,337.18,173.81 M324.75,154.79l6.75,20.86
		c3.76,11.61,5.66,23.69,5.66,35.91c0,17.41-4.2,35.57-12.16,52.52c-7.77,16.57-18.76,31.25-31.76,42.45l-11.74,10.12l15.49,0.38
		l14.13,0.35l30.48,23.26l3.98,3.04l3.69-3.39c1.31-1.2,32.19-30.09,45.52-81.63c13.34-51.58,2.34-84.22,1.86-85.58l-1.74-5
		l-5.17,1.13l-39.13,8.54l-9.47-8.4L324.75,154.79z"/>
	<path style="clip-path:url(#SVGID_00000054263405381119166220000016005966646257262229_);fill:#76153E;" d="M316.94,317.11
		c-27.27,28.22-65.5,45.78-107.84,45.78c-42.21,0-80.34-17.44-107.59-45.5c-0.61,0.94-1.47,1.7-2.45,2.15
		c0.56,0.57,1.11,1.15,1.68,1.72c28.94,28.95,67.43,44.89,108.36,44.89s79.42-15.94,108.36-44.89c0.62-0.62,1.23-1.26,1.84-1.89
		C318.41,318.71,317.62,317.95,316.94,317.11"/>
	<path style="clip-path:url(#SVGID_00000054263405381119166220000016005966646257262229_);fill:#76153E;" d="M358.72,179.64
		c-6.22-28.24-20.32-54.17-41.26-75.11c-28.94-28.94-67.43-44.88-108.36-44.88s-79.42,15.94-108.36,44.88
		c-21.25,21.25-35.48,47.65-41.55,76.39c1.04,0.41,2.03,0.88,3.06,1.37C76.37,114.13,136.75,62.91,209.1,62.91
		c71.77,0,131.75,50.41,146.5,117.74C356.55,180.21,357.59,179.86,358.72,179.64"/>
	<path style="clip-path:url(#SVGID_00000054263405381119166220000016005966646257262229_);fill:#76153E;" d="M209.1,407.88
		c-56.69,0-107.72-24.2-143.35-62.83c-0.91,0.66-1.83,1.22-2.8,1.78c1.94,2.12,3.93,4.2,5.97,6.24
		c18.21,18.21,39.41,32.5,63.01,42.48c24.44,10.34,50.4,15.58,77.17,15.58s52.72-5.24,77.17-15.58
		c23.61-9.99,44.81-24.28,63.01-42.48c1.1-1.11,2.19-2.22,3.27-3.35c-0.89-0.64-1.8-1.27-2.71-1.89
		C314.35,384.84,264.42,407.88,209.1,407.88"/>
	<path style="clip-path:url(#SVGID_00000054263405381119166220000016005966646257262229_);fill:#76153E;" d="M391.76,135.73
		c-9.98-23.61-24.28-44.81-42.48-63.01c-18.2-18.2-39.41-32.5-63.01-42.48c-24.44-10.34-50.4-15.58-77.17-15.58
		s-52.72,5.24-77.17,15.58c-23.61,9.99-44.81,24.28-63.01,42.48c-18.2,18.2-32.5,39.41-42.48,63.01c-4.54,10.73-8.09,21.75-10.65,33
		c0.2,0.03,0.4,0.07,0.61,0.12c0.85,0.25,1.71,0.47,2.58,0.65C38.7,82.71,116.33,17.91,209.1,17.91
		c93.47,0,171.56,65.77,190.56,153.55c0.88-0.69,1.99-1.03,3.12-1.06C400.19,158.57,396.52,146.99,391.76,135.73"/>
	<polygon style="clip-path:url(#SVGID_00000054263405381119166220000016005966646257262229_);fill:#76153E;" points="123.31,347.96 
		142.84,358.56 139.89,363.99 127.67,357.36 125.47,361.41 136.81,367.56 133.99,372.75 122.65,366.6 119.93,371.62 132.5,378.45 
		129.37,384.21 109.49,373.42 	"/>
	<path style="clip-path:url(#SVGID_00000054263405381119166220000016005966646257262229_);fill:#76153E;" d="M137.83,377.55
		l7.61,2.13c-0.3,1.36-0.32,2.47-0.07,3.33c0.41,1.39,1.37,2.35,2.86,2.88c1.11,0.39,2.08,0.42,2.88,0.06
		c0.8-0.35,1.34-0.9,1.6-1.64c0.25-0.71,0.19-1.44-0.19-2.2c-0.38-0.76-1.52-1.76-3.44-3c-3.13-2.04-5.19-4.02-6.16-5.91
		c-0.98-1.9-1.1-3.92-0.34-6.05c0.5-1.4,1.34-2.6,2.54-3.58c1.19-0.98,2.68-1.56,4.44-1.74c1.76-0.18,3.96,0.2,6.6,1.13
		c3.23,1.14,5.47,2.66,6.7,4.56c1.24,1.9,1.51,4.32,0.84,7.27l-7.53-2.14c0.24-1.3,0.15-2.34-0.28-3.12
		c-0.43-0.78-1.2-1.37-2.3-1.76c-0.91-0.32-1.67-0.35-2.27-0.1c-0.61,0.25-1.01,0.68-1.23,1.27c-0.15,0.43-0.1,0.89,0.15,1.37
		c0.24,0.49,1,1.14,2.27,1.93c3.13,2,5.3,3.67,6.49,5.01c1.19,1.34,1.91,2.73,2.15,4.17c0.25,1.44,0.11,2.91-0.42,4.4
		c-0.62,1.75-1.64,3.21-3.06,4.37c-1.42,1.16-3.07,1.84-4.95,2.03c-1.88,0.19-4.04-0.14-6.49-1.01c-4.3-1.52-6.96-3.47-7.99-5.85
		C137.21,382.99,137.08,380.39,137.83,377.55"/>
	<polygon style="clip-path:url(#SVGID_00000054263405381119166220000016005966646257262229_);fill:#76153E;" points="167.71,367.57 
		192.48,372.14 191.19,379.18 182.87,377.64 178.91,399.1 170.76,397.59 174.72,376.14 166.41,374.6 	"/>
	<path style="clip-path:url(#SVGID_00000054263405381119166220000016005966646257262229_);fill:#76153E;" d="M194.86,394.54
		c0.74,0.06,1.37,0.4,1.89,1.04c0.52,0.64,0.75,1.37,0.68,2.21c-0.06,0.81-0.39,1.5-0.99,2.05c-0.59,0.55-1.28,0.8-2.06,0.74
		c-0.77-0.06-1.4-0.41-1.91-1.05c-0.51-0.64-0.73-1.37-0.66-2.18c0.07-0.84,0.4-1.53,1.01-2.08
		C193.42,394.72,194.1,394.48,194.86,394.54"/>
	<path style="clip-path:url(#SVGID_00000054263405381119166220000016005966646257262229_);fill:#76153E;" d="M229.22,370.85
		l2.65,29.35l-7.51,0.68l-1.74-19.23c-1.12,1.11-2.23,2.02-3.31,2.74c-1.08,0.72-2.45,1.44-4.11,2.16l-0.59-6.58
		c2.45-1.11,4.32-2.34,5.6-3.7c1.29-1.36,2.24-2.98,2.87-4.86L229.22,370.85z"/>
	<path style="clip-path:url(#SVGID_00000054263405381119166220000016005966646257262229_);fill:#76153E;" d="M243.1,382.65
		c-1.3-0.38-2.3-0.91-3.02-1.59c-0.98-0.93-1.64-2.11-1.99-3.55c-0.57-2.36-0.01-4.53,1.68-6.52c1.32-1.54,3.3-2.63,5.93-3.26
		c3.49-0.84,6.24-0.74,8.25,0.29c2.01,1.03,3.28,2.64,3.81,4.82c0.31,1.27,0.26,2.53-0.14,3.79c-0.3,0.94-0.89,1.92-1.77,2.95
		c1.59,0.39,2.87,1.1,3.86,2.14c0.98,1.04,1.65,2.29,2.01,3.74c0.34,1.41,0.36,2.8,0.05,4.17c-0.3,1.37-0.81,2.49-1.52,3.37
		c-0.71,0.88-1.68,1.63-2.9,2.26c-1.22,0.63-2.57,1.12-4.04,1.47c-2.76,0.67-4.96,0.82-6.59,0.47c-1.63-0.35-2.99-1.12-4.08-2.31
		c-1.09-1.19-1.84-2.63-2.24-4.32c-0.4-1.65-0.38-3.14,0.05-4.45C240.89,384.78,241.77,383.63,243.1,382.65 M245.02,376.33
		c0.23,0.97,0.71,1.69,1.41,2.15c0.71,0.46,1.53,0.58,2.47,0.35c0.83-0.2,1.44-0.66,1.83-1.38c0.39-0.72,0.47-1.55,0.25-2.48
		c-0.23-0.97-0.71-1.7-1.41-2.17c-0.7-0.47-1.49-0.61-2.36-0.4c-0.88,0.21-1.52,0.68-1.93,1.41
		C244.88,374.54,244.8,375.38,245.02,376.33 M247.56,388.55c0.3,1.24,0.89,2.17,1.78,2.79c0.89,0.62,1.79,0.82,2.69,0.6
		c0.86-0.21,1.55-0.8,2.04-1.76c0.49-0.97,0.59-2.06,0.3-3.29c-0.3-1.24-0.89-2.18-1.78-2.8c-0.89-0.63-1.78-0.83-2.7-0.61
		c-0.9,0.22-1.59,0.79-2.08,1.72C247.33,386.12,247.24,387.24,247.56,388.55"/>
	<path style="clip-path:url(#SVGID_00000054263405381119166220000016005966646257262229_);fill:#76153E;" d="M267.33,375.89
		c-1.34-0.19-2.41-0.57-3.22-1.14c-1.1-0.78-1.92-1.85-2.48-3.22c-0.9-2.25-0.66-4.48,0.72-6.7c1.09-1.71,2.89-3.07,5.4-4.08
		c3.33-1.34,6.06-1.64,8.2-0.91c2.14,0.73,3.63,2.14,4.46,4.22c0.48,1.21,0.62,2.47,0.41,3.77c-0.16,0.97-0.61,2.03-1.33,3.17
		c1.63,0.16,3,0.68,4.12,1.56c1.12,0.88,1.96,2.02,2.53,3.42c0.54,1.35,0.76,2.72,0.65,4.11c-0.1,1.4-0.44,2.58-1.02,3.55
		c-0.58,0.97-1.43,1.85-2.55,2.65c-1.12,0.8-2.38,1.48-3.79,2.04c-2.64,1.06-4.79,1.53-6.45,1.42c-1.66-0.12-3.12-0.68-4.37-1.7
		c-1.25-1.02-2.2-2.33-2.85-3.95c-0.63-1.58-0.83-3.05-0.59-4.42C265.44,378.33,266.15,377.06,267.33,375.89 M268.32,369.36
		c0.37,0.93,0.94,1.57,1.71,1.92c0.76,0.35,1.6,0.35,2.49-0.01c0.79-0.32,1.33-0.86,1.61-1.63s0.25-1.6-0.11-2.49
		c-0.37-0.93-0.94-1.58-1.71-1.94c-0.76-0.37-1.56-0.39-2.39-0.05c-0.84,0.34-1.41,0.9-1.71,1.67
		C267.92,367.61,267.95,368.46,268.32,369.36 M272.58,381.09c0.48,1.19,1.2,2.02,2.17,2.51c0.97,0.48,1.89,0.55,2.75,0.21
		c0.83-0.33,1.42-1.01,1.76-2.04c0.35-1.03,0.29-2.13-0.18-3.3c-0.48-1.19-1.2-2.02-2.16-2.52c-0.97-0.49-1.89-0.56-2.76-0.21
		c-0.86,0.35-1.46,1.01-1.81,2C272.01,378.72,272.08,379.84,272.58,381.09"/>
	<path style="clip-path:url(#SVGID_00000054263405381119166220000016005966646257262229_);fill:#76153E;" d="M301.67,351.2
		l-5.92,4.57c-0.73-0.87-1.41-1.39-2.03-1.56c-0.63-0.17-1.23-0.09-1.81,0.25c-1.05,0.61-1.53,1.65-1.45,3.12
		c0.05,1.07,0.76,3,2.12,5.81c0.28-1.29,0.71-2.37,1.29-3.25c0.58-0.88,1.4-1.62,2.47-2.24c2.07-1.2,4.28-1.42,6.64-0.65
		c2.36,0.77,4.24,2.38,5.66,4.83c0.96,1.65,1.47,3.37,1.54,5.16c0.07,1.79-0.33,3.4-1.21,4.85c-0.88,1.45-2.28,2.73-4.21,3.85
		c-2.32,1.35-4.43,2-6.33,1.96c-1.9-0.04-3.81-0.76-5.74-2.14c-1.93-1.39-3.78-3.63-5.57-6.72c-2.62-4.52-3.66-8.35-3.12-11.48
		c0.54-3.12,2.38-5.59,5.5-7.4c1.85-1.07,3.44-1.69,4.78-1.84c1.34-0.16,2.62,0,3.84,0.48C299.34,349.27,300.52,350.07,301.67,351.2
		 M296.27,369.25c0.79,1.36,1.72,2.23,2.8,2.64c1.08,0.4,2.08,0.34,3-0.2c0.85-0.49,1.35-1.25,1.52-2.27s-0.15-2.23-0.95-3.61
		c-0.82-1.41-1.74-2.32-2.76-2.72c-1.02-0.4-1.97-0.34-2.85,0.16c-0.9,0.52-1.44,1.32-1.63,2.39
		C295.21,366.71,295.5,367.92,296.27,369.25"/>
	<polygon style="clip-path:url(#SVGID_00000054263405381119166220000016005966646257262229_);fill:#76153E;" points="35.86,137.84 
		40.97,128.21 58.51,132.76 44.9,120.8 50,111.18 75.6,124.76 72.41,130.76 52.9,120.4 69.96,135.38 67.08,140.81 45.12,135.06 
		64.63,145.42 61.45,151.42 	"/>
	<path style="clip-path:url(#SVGID_00000054263405381119166220000016005966646257262229_);fill:#76153E;" d="M67.03,111.95
		c-3.63-3.04-5.67-6.33-6.12-9.9c-0.46-3.56,0.71-7.01,3.51-10.35c2.87-3.42,6.06-5.23,9.6-5.42c3.54-0.19,7.09,1.21,10.67,4.2
		c2.6,2.17,4.39,4.36,5.37,6.56c0.98,2.2,1.3,4.45,0.94,6.76c-0.36,2.3-1.49,4.6-3.4,6.88c-1.94,2.32-3.95,3.91-6.02,4.76
		c-2.07,0.85-4.36,1.03-6.88,0.53C72.18,115.46,69.63,114.12,67.03,111.95 M72.38,105.61c2.24,1.88,4.18,2.84,5.81,2.89
		c1.63,0.05,3-0.59,4.11-1.92c1.14-1.36,1.55-2.82,1.21-4.38c-0.33-1.55-1.74-3.37-4.23-5.45c-2.09-1.75-3.95-2.64-5.56-2.67
		c-1.62-0.02-2.99,0.63-4.11,1.97c-1.07,1.28-1.44,2.72-1.11,4.32C68.82,101.98,70.12,103.72,72.38,105.61"/>
	<polygon style="clip-path:url(#SVGID_00000054263405381119166220000016005966646257262229_);fill:#76153E;" points="78.73,76.49 
		98.07,60.34 102.65,65.83 96.16,71.25 110.15,88 103.78,93.32 89.8,76.56 83.31,81.98 	"/>
	<polygon style="clip-path:url(#SVGID_00000054263405381119166220000016005966646257262229_);fill:#76153E;" points="105.67,55.08 
		112.9,51.02 117.86,59.86 125.76,55.43 120.8,46.59 128.06,42.51 142.24,67.78 134.97,71.86 129.24,61.63 121.34,66.07 
		127.07,76.29 119.84,80.34 	"/>
	<polygon style="clip-path:url(#SVGID_00000054263405381119166220000016005966646257262229_);fill:#76153E;" points="138.08,38.24 
		159.1,31.05 161.1,36.9 147.94,41.4 149.44,45.76 161.64,41.58 163.56,47.17 151.35,51.35 153.2,56.76 166.74,52.12 168.86,58.33 
		147.46,65.65 	"/>
	<path style="clip-path:url(#SVGID_00000054263405381119166220000016005966646257262229_);fill:#76153E;" d="M173.48,57.18
		l-4.43-29.06l13.86-2.11c2.57-0.39,4.57-0.45,6-0.18c1.43,0.27,2.66,0.99,3.69,2.15c1.03,1.16,1.68,2.67,1.97,4.52
		c0.25,1.61,0.14,3.05-0.32,4.32c-0.46,1.27-1.19,2.35-2.19,3.24c-0.64,0.57-1.55,1.1-2.74,1.6c1.04,0.21,1.82,0.45,2.33,0.74
		c0.34,0.19,0.86,0.63,1.56,1.33c0.7,0.69,1.18,1.23,1.44,1.63l5.31,7.81l-9.4,1.43l-5.8-8.2c-0.74-1.06-1.35-1.73-1.85-2.01
		c-0.67-0.36-1.38-0.48-2.14-0.36l-0.73,0.11l1.8,11.79L173.48,57.18z M179.19,38.62l3.51-0.54c0.38-0.06,1.09-0.3,2.14-0.73
		c0.53-0.2,0.93-0.58,1.21-1.12c0.28-0.54,0.36-1.13,0.27-1.76c-0.14-0.94-0.53-1.62-1.15-2.04c-0.63-0.42-1.7-0.51-3.22-0.28
		l-3.65,0.56L179.19,38.62z"/>
	<polygon style="clip-path:url(#SVGID_00000054263405381119166220000016005966646257262229_);fill:#76153E;" points="201.58,24.27 
		209.33,24.72 211.18,40.84 216.2,25.13 223.92,25.58 227.07,41.75 230.8,25.98 238.51,26.44 231.01,54.6 223.02,54.13 
		219.44,35.91 213.78,53.59 205.78,53.12 	"/>
	<polygon style="clip-path:url(#SVGID_00000054263405381119166220000016005966646257262229_);fill:#76153E;" points="246.9,28.15 
		268.37,33.85 266.78,39.83 253.34,36.26 252.16,40.71 264.63,44.02 263.11,49.73 250.64,46.42 249.18,51.94 263.01,55.62 
		261.32,61.96 239.46,56.15 	"/>
	<polygon style="clip-path:url(#SVGID_00000054263405381119166220000016005966646257262229_);fill:#76153E;" points="277.53,37.25 
		285.08,40.65 276.12,60.57 287.92,65.88 284.99,72.38 265.63,63.67 	"/>
	<polygon style="clip-path:url(#SVGID_00000054263405381119166220000016005966646257262229_);fill:#76153E;" points="304.33,50.2 
		311.26,54.75 299.28,73.01 310.1,80.1 306.19,86.07 288.44,74.42 	"/>
	<polygon style="clip-path:url(#SVGID_00000054263405381119166220000016005966646257262229_);fill:#76153E;" points="340.22,77.4 
		354.2,92.4 349.64,96.64 341.34,87.74 337.64,91.19 344.73,98.79 340.45,102.78 333.37,95.18 324.71,103.25 319.03,97.16 	"/>
	<path style="clip-path:url(#SVGID_00000054263405381119166220000016005966646257262229_);fill:#76153E;" d="M341.4,114.24
		c0.44,0.6,0.6,1.3,0.46,2.11c-0.14,0.81-0.54,1.47-1.22,1.97c-0.66,0.49-1.39,0.69-2.2,0.61c-0.81-0.08-1.45-0.44-1.91-1.06
		c-0.46-0.62-0.61-1.33-0.46-2.13c0.15-0.8,0.55-1.45,1.21-1.94c0.67-0.5,1.42-0.71,2.23-0.61
		C340.32,113.28,340.95,113.63,341.4,114.24"/>
	<path style="clip-path:url(#SVGID_00000054263405381119166220000016005966646257262229_);fill:#76153E;" d="M360.75,133.33
		l1.53,7.49c-2.15,0.66-4.13,0.9-5.93,0.72c-1.8-0.18-3.41-0.76-4.83-1.75c-1.42-0.98-2.73-2.51-3.92-4.6
		c-1.44-2.54-2.22-4.83-2.34-6.89c-0.12-2.06,0.49-4.24,1.83-6.55c1.34-2.3,3.57-4.35,6.69-6.12c4.17-2.37,7.95-3.16,11.36-2.39
		c3.4,0.78,6.17,3.05,8.31,6.8c1.67,2.94,2.34,5.61,2.02,8.02c-0.33,2.41-1.59,4.78-3.78,7.11l-5.15-5.49
		c0.64-0.66,1.07-1.21,1.29-1.66c0.37-0.74,0.54-1.49,0.53-2.26c-0.01-0.77-0.22-1.51-0.63-2.23c-0.93-1.63-2.35-2.48-4.26-2.54
		c-1.43-0.06-3.27,0.55-5.52,1.83c-2.79,1.59-4.48,3.07-5.07,4.44c-0.59,1.37-0.48,2.77,0.33,4.19c0.78,1.38,1.79,2.18,3.03,2.41
		C357.47,134.1,358.98,133.92,360.75,133.33"/>
	<path style="clip-path:url(#SVGID_00000054263405381119166220000016005966646257262229_);fill:#76153E;" d="M361.32,149.24
		c0.29,0.68,0.28,1.4-0.04,2.16c-0.32,0.76-0.87,1.3-1.64,1.63c-0.75,0.32-1.51,0.35-2.28,0.08c-0.77-0.27-1.31-0.76-1.61-1.48
		c-0.3-0.71-0.29-1.43,0.04-2.18c0.33-0.75,0.87-1.28,1.62-1.6c0.77-0.33,1.54-0.36,2.31-0.08
		C360.49,148.06,361.02,148.55,361.32,149.24"/>
	<path style="clip-path:url(#SVGID_00000054263405381119166220000016005966646257262229_);fill:#FAAC03;" d="M127.8,96.87
		c-9.97,8.52-20.53,17.5-30.65,26.17c-0.42,0.34-1.97,1.66-1.99,1.86c0-0.03,0.49,0.54,0.63,0.76c1.47,2.03,2.76,4.31,3.85,6.46
		c3.99,7.97,6.47,16.63,6.17,28.8c-0.18,7.39-1.48,14.19-2.76,20.62c-1.28,6.46-2.98,12.55-4.84,18.65
		c-3.62,11.8-7.15,24.8-6.37,40.19c0.36,7.09,2.08,13.47,4.25,19.17c2.16,5.75,4.87,10.9,7.73,15.73c2.9,4.89,6.25,9.29,9.79,13.63
		c3.48,4.3,6.99,8.63,10.78,12.67c3.79,4.08,7.6,8.11,11.83,11.57c6.4,5.24,13.49,10.2,21.76,13.41c2.86,1.1,5.91,1.8,8.96,2.75
		c5.76,1.84,11.59,4.03,16.72,6.74c10.32,5.46,18.34,12.44,26.77,20.17c8-7.77,15.78-14.98,26.07-20.2
		c2.45-1.25,3.85-1.93,6.63-3.09c4.73-1.65,6.62-2.3,9.71-3.15c4.35-1.25,6.22-1.93,9.13-3.01c14.01-5.16,24.04-14.51,33.4-24.52
		c3.77-4.01,7.33-8.18,10.78-12.44c6.9-8.51,12.86-18.05,17.14-29.11c2.19-5.64,3.94-11.65,4.54-18.68
		c1.32-15.03-1.37-29.2-4.97-40.6c-3.63-11.46-7.1-24.25-8-38.31c-1-15.49,2.94-27.27,8.86-37.08c-0.43-0.74-1.17-1.24-1.79-1.83
		c-1.98-1.87-3.97-3.64-5.93-5.47c-7.85-7.35-15.87-14.57-23.68-21.86c-1.61,1.69-3.52,3.54-5.54,5.04
		c-5.82,4.31-13.47,7.38-22.13,8.72c-5.75,0.89-13.4,1.22-19.31,0.5c-5.98-0.73-9.6-6.05-8.79-13h-53.1
		c1.29,3.12,0.67,7.8-0.92,9.65c-1.58,1.83-4.42,2.88-7.24,3.35c-5.92,0.96-13.82,0.91-19.5-0.13
		C144.05,108.81,134.87,103.49,127.8,96.87 M187.43,102.14H233c-0.4,6.92,3.52,10.71,9.15,12.11c2.8,0.7,6.19,0.82,9.66,0.92
		c17.77,0.56,32.35-3.86,40.5-12.96c9,7.82,18.14,15.5,27.16,23.31c-5.24,9.98-9.95,21.08-9.29,35.96
		c0.6,13.89,3.72,26.78,7.36,37.85c1.9,5.81,3.75,11.49,4.9,17.74c1.21,6.53,1.51,13.37,1.46,21.13
		c-0.05,7.45-1.51,13.43-3.56,19.07c-5.95,16.48-16.02,29.2-26.86,40.99c-3.66,3.99-7.22,7.99-11.35,11.28
		c-4.1,3.27-8.92,6.26-13.69,8.92c-4.82,2.7-10,5.17-15.46,7.17c-2.78,1.03-5.69,1.75-8.55,2.78
		c-12.41,4.52-22.75,10.88-31.55,19.34c-0.41,0.39-0.86,0.86-1.42,1.42c-0.35,0.33-1.39,1.36-1.42,1.36c-0.15,0-1.08-0.96-1.5-1.36
		c-3.28-3.28-7.09-6.4-10.71-9.15c-4.38-3.3-9.09-6.28-14.11-8.6c-10.53-4.84-22.76-7.31-32.56-12.83
		c-9.62-5.4-17.56-12.67-24.97-20.4c-13.06-13.56-23.94-29.04-29.06-50.35c-0.38-1.56-0.62-3.14-0.9-4.78
		c-0.31-1.69-0.34-3.31-0.3-5.2c0.2-7.31,0.85-14.3,2.12-20.6c1.25-6.24,3.11-11.99,4.97-17.72c1.84-5.64,3.19-11.81,4.45-18.2
		c1.25-6.43,2.25-13.1,2.69-20.01c0.5-7.67-0.23-14.38-2.19-20.2c-1.89-5.62-4.34-10.66-7.43-15.19
		c8.75-7.77,17.44-15.28,26.3-23.05c0.25-0.2,0.89-0.7,0.86-0.7c0.2,0,0.84,1.05,1.2,1.46c2.93,3.22,7.14,5.71,11.41,7.46
		c7.53,3.07,17.21,4.49,28.09,4.18c3.54-0.1,7.09-0.18,9.98-0.8c5.88-1.22,9.91-4.7,9.02-12.17
		C187.33,102.32,187.33,102.14,187.43,102.14 M190.61,105.09c-0.07,0.02-0.08,0.1-0.06,0.2c-0.44,6.59-4.26,10.34-10.15,11.81
		c-2.88,0.71-6.32,0.95-9.85,1.12c-18.49,0.89-33.9-3.14-43.19-11.58c-7.57,6.61-15.12,13.25-22.76,19.8
		c3.93,6.55,7.01,13.93,8.29,23.18c1.34,9.65-0.37,20.04-1.86,28.86c-0.76,4.53-1.73,8.78-2.75,12.97
		c-3.08,12.6-8.15,23.78-8.86,38.37c4.5-9.76,13.46-29.35,13.46-29.35h21.2l-26.5,58.77h-3.54c0.26,1.51,1.17,3.07,1.76,4.41
		c4.36,9.89,10.15,17.9,16.61,25.57c7.2,8.56,15.45,16.91,24.88,23.29c4.89,3.31,9.96,6.11,15.83,8.23
		c5.8,2.11,11.95,3.68,17.84,6.24c2.88,1.23,5.62,2.46,8.23,3.84c7.91,4.13,14.46,9.65,20.87,15.29
		c10.17-9.89,22.81-17.54,38.21-22.13c3.02-0.89,5.95-2.03,8.79-3.25c8.25-3.54,15.97-8.05,22.71-13.27
		c2.22-1.73,4.2-3.77,6.24-5.81c4.01-4.03,7.72-8.37,11.47-12.7c7.48-8.65,14.27-18.46,18.81-29.72h-21.1l22.49-49.42
		c0.02-0.55-0.37-1.45-0.56-2.12c-0.63-2.2-1.41-4.28-2.06-6.17c-8.77,19.18-26.03,57.71-26.03,57.71H267.5
		c0,0,13.16-29.7,19.76-44.38c2.2-4.9,6.6-14.39,6.6-14.39h20.9c-3.34-11.08-6.86-23.88-7.49-37.74c-0.69-14.87,3.3-26.6,8.29-36.35
		c-7.55-6.74-15.42-13.15-22.99-19.87c-7.49,6.77-18.66,10.45-32.17,11.41c-6.75,0.48-14.65,0.47-20.13-1.14
		c-5.67-1.62-9.39-5.42-10.15-11.7H190.61z M210.31,109.2c0.57-0.02,1.16,0.23,1.63,1.03c1.24,2.12,4.21,7.64,4.84,8.49
		c0.63,0.84,1.21,1.64,0.2,1.56c-0.92-0.1-0.92-0.05-1.67-0.03c-0.71,0-1.09,0.52-0.23,1.25c0.88,0.75,6.02,7.02,6.15,7.33
		c0.12,0.31,0.98,1.97,0,1.99c-0.98,0.02-1.09,0.17-2.06,0.07c-0.99-0.09-0.99,0.26-0.59,1.42c0.37,1.17,4.35,5.08,4.87,6.04
		c0.5,0.97,1.32,2.36,0.53,2.78c-1.09,0.56-1.19,0.38-1.72,0.67c-0.45,0.23-0.82,0.4-0.23,1.06c0.92,1.03,2.96,2.73,3.71,3.68
		c0.74,0.94,2.02,2.44,0.8,3.31c-1.22,0.88-1.96,0.9-1.2,2.06c0.75,1.17,2.75,3.51,3.25,4.25c0.51,0.73,1.74,1.06,2.56,0.3
		c0.47-0.44,0.86-1.21,1.09-1.62c0.23-0.45,0.35-0.97-0.27-0.97c-0.63,0.02-0.73,0.12-1.59,0.14c-0.86,0.01-1.71-0.32-0.63-1.73
		c1.07-1.4,5.78-6.39,6.26-6.93c0.49-0.53,0.71-1.2-0.03-1.29c-0.73-0.08-1.15-0.29-1.29-0.73c-0.12-0.41,0.37-0.93,0.67-1.72
		c0.31-0.85,4.1-5.73,4.71-7.03c0.59-1.3,2.6-5.29,2.81-6.24c0.23-0.98,0.76-1.91,1.56-0.1c0.49,1.12,7.06,10.77,7.79,11.83
		c0.78,1.05,0.98,2.44-0.13,2.46c-1.12,0.01-0.86-0.01-1.72-0.11c-0.87-0.1-1.55,0.07-0.67,1.23c0.88,1.17,4.16,6.47,4.78,7.09
		c0.63,0.65,1.24,2.14,0.14,2.17c-1.1,0.01-0.73-0.07-1.46,0.03c-0.73,0.12-1.34,0.33-0.83,1.39c0.5,1.06,3.98,5.2,4.61,6.37
		c0.65,1.17,2.22,2.1,0.73,2.12c-1.46,0.03-1.51,0.15-2.62,0.17c-1.1,0.01-1.73,1.09-0.86,1.72c0.86,0.65,2.54,2.07,3.01,2.82
		c0.5,0.73,0.9,2.24,1.53,2.89c0.63,0.61,1.27,1.29,1.89,2.05c0.63,0.73,0.29,2.06-0.69,1.43c-1.01-0.63-2.45-1.2-2.96-1.73
		c-0.49-0.53-0.85-0.51-1.19,0.23c-0.36,0.77-0.6,1.39-0.6,1.39s-0.56,0.8-1.23,0.47c-1.3-0.66-0.89-0.87-1.62-1.3
		c-0.75-0.43-0.72-0.29-0.8,0.43c-0.07,0.79-0.98,2.12-2.53,0.92c-0.7-0.56-1.19-1.06-1.69-0.96c-0.49,0.11-0.61,0.45-0.59,1.53
		c0.01,1.06-1.01,2.97,0.19,3.91c1.01,0.79,2.03,0.71,2.89,0.8c0.86,0.1,1.98,0.54,3.09,1.09c1.22,0.62,0.59-0.29,2.68,0.44
		c2.09,0.71,6.52,2.62,8.85,3.45c2.35,0.83,4.36,2.37,5.98,3.09c1.59,0.73,4.14,2.3,1.33,2.02c-2.83-0.29-22.95,0.05-27,0.11
		c-4.04,0.05-87.43,0-88.79,0c-3.44,0-2.19-0.83-0.76-1.9c1.11-0.81,4.27-2.97,5.96-3.64c1.71-0.66,7.65-2.55,10.22-3.56
		c2.55-1,7.35-1.2,7.76-2.39c0.39-1.16,0.33-1.85-0.17-2.48c-0.5-0.63-0.26-0.93-1.36-1.03c-1.11-0.1-2.07,0.88-2.55,1.62
		c-0.47,0.76-1.46,0.76-1.96,0.23c-0.48-0.52-0.37-1.17-1.95-1.03c-1.59,0.13-3.18,0.49-3.92,0.5c-0.75,0-1.46-0.21-1.36-0.73
		c0.09-0.47,0.24-0.89,0.7-1.66c0.45-0.74,0.51-0.98-0.6-0.96c-1.09,0-1.25,0.36-2.85,0.26c-1.59-0.08-1.85-0.91-0.73-1.59
		c1.09-0.65,5.91-4.78,6.4-5.11c0.49-0.33,0.6-0.65,0-0.86c-1.59-0.53-1.84-0.44-2.95-0.73c-1.11-0.31-1.35-1.02-0.64-1.89
		c0.72-0.87,4.46-4.89,5.18-5.54c0.73-0.66,0.53-1.8-0.33-1.79c-0.86,0.02-0.59,0.18-1.17,0.11c-1.14-0.16-1.26-1.36-0.53-2.32
		c1.69-2.22,4.81-6.87,5.08-7.53c0.25-0.65,0.12-1.35-0.4-1.4c-0.86-0.05-0.49-0.03-1.59-0.06c-1.16-0.04-1.72-0.75-1.03-2.02
		c1.12-2.05,6.17-10.81,6.93-13.27c0.2-0.66,0.33-1.32,1.09-0.37c0.73,0.96,8.3,9.65,8.96,10.65c0.85,1.3,1.14,2.75,0.67,3.18
		c-0.5,0.43-0.96,0.87-1.56,0.87c-0.33,0.01-0.37,0.33,0.13,0.86c0.5,0.53,3.97,3.81,4.71,4.45c0.73,0.62,0.88,1.15,0.39,1.69
		c-0.48,0.53-1.04,0.83-0.96,1.39c0.11,0.74,1.53,2.65,2.72,1.59c0.53-0.5,2.52-2.84,2.89-3.28c0.36-0.42,0.69-0.88-0.17-0.86
		c-0.86,0.01-2.11-0.36-2.84-0.76c-0.75-0.43-0.83-1.08-0.11-1.96c0.72-0.86,5.25-6.25,5.97-6.93c0.9-0.84,1.24-1.88,0-1.86
		c-1.41,0.05-0.93,0.03-1.92,0.26c-0.98,0.22-2.26,0.22-0.64-1.49c0.89-0.94,4.23-4.42,4.71-5.28c0.47-0.87,0.61-1.56,0-1.56
		c-0.6,0.01-1.01,0.13-1.73,0.27c-0.73,0.16-1.12-1.04-0.27-1.59c2.27-1.45,5.15-5.88,5.77-7.07c0.41-0.76,0.25-1.32-0.39-0.99
		c-1.65,0.81-2.52,0.15-1.79-0.84c0.72-0.97,4.8-8.01,5.1-8.62C208.45,110.1,209.37,109.24,210.31,109.2 M197.09,172.09
		c-0.7,0.27-2.41,3.34-4.62,2.95c-0.84-0.16-0.6-1.67-1.59-1.56c-1.4,0.16-2.34,2.44-3.61,2.42c-1.12-0.01-1.1-0.27-1.96-0.89
		c-0.87-0.65-1.15,1.23-0.96,2.06c0.14,0.6,0.21,1.07,1.55,1.06c1.35-0.02,1.5-0.28,3.09-0.31c1.58-0.01,1.66,0.82,2.15,1.14
		c0.49,0.31,1.11,0.92,2.23,0.89c1.1,0,13.3-2.9,15.09-4.21c0.67-0.48,0.23-2.24-0.14-2.51c-0.82-0.65-5.49,3.44-7.26,3.68
		c-1.52,0.2-2.1,0.45-3.09-0.5c-1-0.93-0.5-4.14-0.8-4.21C197.15,172.08,197.13,172.07,197.09,172.09 M223.36,172.22
		c-1.47,0.25-1.5,1.25-2.76,1.59c-1.27,0.33-4.11-1.74-5.23-1.45c-0.46,0.11-0.7,0.93-0.57,1.36c0.13,0.43,0.17,3.01,0.93,3.85
		c0.4,0.45,3.89-0.54,5.73,0.03c2.24,0.68,3.1,1.68,4.25,1.52c1.6-0.2,4.28-2.82,6.6-2.69c2.53,0.16,5.27,2.2,6.94,2.32
		c1.48,0.13,1.34-0.71,1.32-1.26c0-0.53-1.38-1.09-1.89-1.62c-0.5-0.53-1.24-2.16-2.36-2.25c-1.74-0.15-2.4,1.27-3.67,0.92
		c-1.31-0.36-0.5-1.26-1.7-1.56c-0.47-0.12-0.9,0.62-1.39,0.67C227.96,173.77,224.82,172.01,223.36,172.22 M140.4,200.39l21.73,0.1
		c0,0-17.8,39.12-26.74,58.77c-6.68-0.12-14.45-0.12-21.36,0c-0.05-0.64,0.38-1.22,0.63-1.75
		C123.28,238.63,140.4,200.39,140.4,200.39 M167.86,200.48h19.64c-0.45,0.34-0.46,0.54-0.63,0.69c-4.11,3.49-7.99,8.04-10.41,13.27
		c-2.44,5.22-3.35,11.13-3.35,18.81c0,0.96,0.2,2.07,0.06,3.02l-10.84,22.98H141.4L167.86,200.48z M235.39,200.48h26.21
		l-11.55,24.38C247.83,213.96,242.64,206.31,235.39,200.48 M266.97,200.48h21.53l-26.3,58.77h-21.43L266.97,200.48z M174.92,243.86
		c2.44,6.22,5.57,11.3,10.12,15.39h-16.65L174.92,243.86z"/>
	<path style="clip-path:url(#SVGID_00000054263405381119166220000016005966646257262229_);fill:#76153E;" d="M247.28,230.96
		c0,19.66-15.94,35.6-35.6,35.6s-35.6-15.94-35.6-35.6s15.94-35.6,35.6-35.6S247.28,211.3,247.28,230.96"/>
	<path style="clip-path:url(#SVGID_00000054263405381119166220000016005966646257262229_);fill:#FFFFFF;" d="M198.91,201.31
		l-11.42,9.94l2.12,9.72l9.3,4.18l10.65-9.35v-8.96L198.91,201.31z M224.64,201.48l-11.34,5.37l-0.26,8.65l9.91,9.66l8.72-2.62
		l4.18-11.71L224.64,201.48z M189.05,225.52l-8.71,9.62l4.73,12.14h13.34l3.98-8.02l-4.05-10.91L189.05,225.52z M235.09,226.16
		l-10.85,1.75l-4.34,11.28l5.47,8.22h12.31l5.27-11.91L235.09,226.16z M204.78,241.05l-5.38,9.62l5.04,9.88l14.7,0.06l3.95-10.34
		l-5.81-9.22H204.78z"/>
	<path style="clip-path:url(#SVGID_00000054263405381119166220000016005966646257262229_);fill:#FAAC03;" d="M77.37,161.5
		c-2.16,8.15-3.97,14.17-3.97,14.17l14.39-12.54"/>
	<path style="clip-path:url(#SVGID_00000054263405381119166220000016005966646257262229_);fill:#FAAC03;" d="M341.25,161.5
		c2.16,8.15,3.97,14.17,3.97,14.17l-14.39-12.54"/>
	<path style="clip-path:url(#SVGID_00000054263405381119166220000016005966646257262229_);fill:#FAAC03;" d="M122.22,325.02
		c5.74-6.21,6.56-8.76,6.56-8.76h-16.79"/>
	<path style="clip-path:url(#SVGID_00000054263405381119166220000016005966646257262229_);fill:#FAAC03;" d="M296.39,325.02
		c-5.74-6.21-6.19-8.26-6.19-8.26l16.42-0.5"/>
</g>
<polygon class="st3" points="166.68,304.79 166.96,304.8 166.96,304.51 "/>
<polygon class="st3" points="166.96,304.31 166.96,304.51 167.16,304.31 "/>
<polygon class="st3" points="166.68,304.79 166.96,304.8 166.96,304.51 "/>
<polygon class="st3" points="194.81,304.31 195.16,304.31 194.81,303.97 "/>
<g>
	<defs>
		<rect id="SVGID_00000183226900046650505000000012372189812270898361_" x="-12" y="-8.2" width="442.2" height="442.2"/>
	</defs>
	<clipPath id="SVGID_00000074441876615659900740000003323956942165706904_">
		<use xlink:href="#SVGID_00000183226900046650505000000012372189812270898361_"  style="overflow:visible;"/>
	</clipPath>
	<path style="clip-path:url(#SVGID_00000074441876615659900740000003323956942165706904_);fill:#76153E;" d="M274.81,300.76v8.57
		l-4.06,2.55H149.21l-5.11-5.11l4.67-4.64l2.32,2.17H157v-22.67h2.16v22.67h4.61V287.7h3.18v16.81l-0.29,0.29l0.29,0.01v-0.3
		l0.2-0.2l2.71-2.71l2.34,2.34l-0.37,0.37h0.74l-0.37-0.37l2.33-2.34l2.27,2.27l-0.44,0.44h0.88l-0.44-0.44l2.27-2.27l2.14,2.14
		l-0.56,0.56h1.12l-0.56-0.56l2.14-2.14l2.3,2.3l-0.41,0.41h0.82l-0.41-0.41l2.3-2.3l2.25,2.25l-0.46,0.46h0.92l-0.46-0.46
		l2.25-2.25l2.36,2.36v0.34h0.34l-0.34-0.34v-5.01h9.82v-20.49h2.89v25.84h0.47c0,0,0.27-0.42,0.69-1.17v-17.17h2.17v12.78
		c1.35-3.16,2.68-7.3,2.68-11.3c0-8.18-1.59-9.23-1.59-9.23v-0.69h13.62c-0.02,0.19-0.01,0.37,0.01,0.56
		c0.07-0.22,0.13-0.41,0.23-0.56h1.32v0.69c0,0-1.59,1.05-1.59,9.23c0,3.15,0.82,6.37,1.82,9.13c0.26-1.09,0.41-2.21,0.41-3.32
		c0-5.36-1.05-6.05-1.05-6.05v-0.45h9.95v0.45c0,0-1.05,0.7-1.05,6.05c0,2.36,0.71,4.79,1.5,6.76c0.5-1.43,0.9-3.06,0.9-4.65
		c0-4.33-0.84-4.89-0.84-4.89v-0.36h8.04v0.36c0,0-0.85,0.55-0.85,4.89s2.93,8.94,2.93,8.94h4.91v-11.95h2.25v-1.5h6.82v1.5h2.45
		v11.95h1.88l0.24-0.1v-4.97h1.09v-1.06h6.81v1.06h1.09v1.52H274.81z"/>
	<polygon style="clip-path:url(#SVGID_00000074441876615659900740000003323956942165706904_);fill:#76153E;" points="166.96,304.51 
		166.96,304.8 166.68,304.79 	"/>
	<polygon style="clip-path:url(#SVGID_00000074441876615659900740000003323956942165706904_);fill:#76153E;" points="172.57,304.31 
		171.83,304.31 172.2,303.94 	"/>
	<polygon style="clip-path:url(#SVGID_00000074441876615659900740000003323956942165706904_);fill:#76153E;" points="172.57,304.31 
		171.83,304.31 172.2,303.94 	"/>
	<polygon style="clip-path:url(#SVGID_00000074441876615659900740000003323956942165706904_);fill:#76153E;" points="177.24,304.31 
		176.37,304.31 176.8,303.87 	"/>
	<polygon style="clip-path:url(#SVGID_00000074441876615659900740000003323956942165706904_);fill:#76153E;" points="177.24,304.31 
		176.37,304.31 176.8,303.87 	"/>
	<polygon style="clip-path:url(#SVGID_00000074441876615659900740000003323956942165706904_);fill:#76153E;" points="181.78,304.31 
		180.65,304.31 181.22,303.75 	"/>
	<polygon style="clip-path:url(#SVGID_00000074441876615659900740000003323956942165706904_);fill:#76153E;" points="181.78,304.31 
		180.65,304.31 181.22,303.75 	"/>
	<polygon style="clip-path:url(#SVGID_00000074441876615659900740000003323956942165706904_);fill:#76153E;" points="186.07,304.31 
		185.25,304.31 185.66,303.9 	"/>
	<polygon style="clip-path:url(#SVGID_00000074441876615659900740000003323956942165706904_);fill:#76153E;" points="186.07,304.31 
		185.25,304.31 185.66,303.9 	"/>
	<polygon style="clip-path:url(#SVGID_00000074441876615659900740000003323956942165706904_);fill:#76153E;" points="190.66,304.31 
		189.74,304.31 190.2,303.85 	"/>
	<polygon style="clip-path:url(#SVGID_00000074441876615659900740000003323956942165706904_);fill:#76153E;" points="190.66,304.31 
		189.74,304.31 190.2,303.85 	"/>
	<polygon style="clip-path:url(#SVGID_00000074441876615659900740000003323956942165706904_);fill:#76153E;" points="195.16,304.31 
		194.81,304.31 194.81,303.97 	"/>
	<path style="clip-path:url(#SVGID_00000074441876615659900740000003323956942165706904_);fill:#76153E;" d="M225.78,277.52
		c-0.1,0.15-0.16,0.34-0.23,0.56c-0.02-0.19-0.03-0.37-0.01-0.56H225.78z"/>
	<path style="clip-path:url(#SVGID_00000074441876615659900740000003323956942165706904_);fill:#76153E;" d="M157.66,279.46
		c-0.57-1.17-0.18-2.74,0.89-3.5c1.84-1.31,4.64-0.09,6.55-1.3c0.5-0.32,0.9-0.78,1.45-1.01c1.39-0.59,3.39,0.45,4.33-0.73
		c0.34-0.43,0.4-1.04,0.78-1.44c0.54-0.56,1.51-0.5,2.04-1.06c0.49-0.52,0.4-1.39-0.01-1.97s-1.06-0.94-1.68-1.29
		c1.51-0.81,3.34-0.99,4.98-0.49c0.33,0.1,0.67,0.23,1.01,0.17c0.54-0.1,0.89-0.64,1.41-0.8c0.65-0.21,1.3,0.21,1.94,0.46
		c0.63,0.25,1.56,0.2,1.74-0.46c0.37-0.25,0.84,0.3,0.74,0.73c-0.1,0.44-0.48,0.74-0.75,1.1c-0.55,0.71-0.68,1.67-1.11,2.46
		c-0.43,0.79-1.47,1.43-2.21,0.91c0.34,0.91-0.82,1.69-1.8,1.75c-0.97,0.06-2.07-0.15-2.83,0.46c-0.32,0.26-0.54,0.64-0.9,0.85
		c-1.1,0.64-2.69-0.72-3.68,0.08c-0.27,0.21-0.43,0.56-0.73,0.71c-0.43,0.21-0.93-0.04-1.4-0.1c-1.42-0.19-2.52,1.3-3.92,1.56
		c-0.79,0.14-1.59-0.12-2.38-0.11c-0.8,0.01-1.73,0.47-1.76,1.26c-0.48,0.02-0.96,0.05-1.43,0.07
		C159.45,278.71,158.09,280.34,157.66,279.46"/>
	<path style="clip-path:url(#SVGID_00000074441876615659900740000003323956942165706904_);fill:#76153E;" d="M165.95,285.01
		c0.07-1.06,1.17-1.94,2.22-1.76c-0.21-0.64,0.54-1.19,1.21-1.3c0.66-0.11,1.43-0.08,1.9-0.55c0.22-0.22,0.34-0.51,0.55-0.73
		c0.22-0.23,0.52-0.37,0.81-0.51c1.91-0.88,3.82-1.78,5.72-2.69c0.66-0.31,1.31-0.62,1.97-0.94c1.33-0.63,2.82-1.46,3.11-2.9
		c0.1-0.51,0.03-1.05-0.19-1.51c1.22-0.4,2.18-1.47,2.46-2.72c1.25-0.02,1.99-1.85,1.11-2.74c1.45-0.05,2.9,0.04,4.33,0.27
		c0.6,0.64,1.43,1.05,2.29,1.14c-0.23,0.57-0.02,1.28,0.47,1.66c-1.73-0.05-3.91,0.19-4.46,1.83c-0.12,0.36-0.14,0.75-0.28,1.1
		c-0.41,1.03-1.78,2.01-1.11,2.89c-1.55-0.36-3.26,0.94-3.32,2.54c-1.14-0.31-2.3,1.12-1.77,2.18c-0.74,0.42-1.65,0.52-2.47,0.27
		c-0.03,0.79-0.97,1.23-1.76,1.22c-0.79-0.02-1.58-0.3-2.36-0.18s-1.54,0.96-1.17,1.66c-1.31-0.65-2.94-0.62-4.23,0.09
		c-0.4,0.22-0.8,0.52-1.26,0.53c-0.29,0.01-0.57-0.09-0.85-0.14C167.75,283.47,166.5,284.12,165.95,285.01"/>
	<path style="clip-path:url(#SVGID_00000074441876615659900740000003323956942165706904_);fill:#76153E;" d="M206.14,277.5
		c-0.32-0.52-0.54-1.11-0.63-1.72c0.38-0.47,0.97-0.77,1.58-0.78c0.22,0,0.45,0.02,0.63-0.1c0.14-0.09,0.22-0.26,0.28-0.42
		c0.39-1.01,0.51-2.36,1.53-2.71c0.82-0.29,1.91,0.24,2.49-0.4c0.16-0.17,0.24-0.41,0.42-0.56c0.69-0.59,1.68,0.61,2.57,0.42
		c0.5-0.11,0.79-0.62,1.18-0.96c0.6-0.53,1.55-0.62,2.24-0.22c0.2,0.12,0.39,0.27,0.62,0.31c0.49,0.07,0.86-0.4,1.31-0.6
		c0.73-0.33,1.71,0.26,1.76,1.06c-1.07,0.4-2.04,1.04-2.81,1.88c-0.43,0.46-0.86,1.01-1.47,1.12c-1.14,0.2-2.4-1.17-3.3-0.43
		c-0.18,0.15-0.3,0.37-0.48,0.53c-0.56,0.5-1.43,0.25-2.15,0.02c-0.72-0.22-1.68-0.3-2.06,0.35c-0.23,0.4-0.23,1.04-0.68,1.13
		c-0.21,0.04-0.43-0.08-0.64-0.08c-0.72-0.02-1.26,1.15-1.87,0.78c-0.01,0.39-0.02,0.79-0.04,1.18
		C206.26,277.3,205.9,277.3,206.14,277.5"/>
	<path style="clip-path:url(#SVGID_00000074441876615659900740000003323956942165706904_);fill:#76153E;" d="M254.35,266.23
		c-1.5,1.71-3.31,3.56-5.57,3.52c-0.56-0.01-1.11-0.13-1.67-0.05c-1.63,0.27-2.46,2.26-4.04,2.74c-1.83,0.55-4.02-1.12-5.63-0.08
		c-0.33,0.22-0.62,0.55-1,0.68c-0.88,0.3-1.73-0.58-2.66-0.55c-1.05,0.03-1.67,1.11-2.29,1.94c-0.62,0.84-1.91,1.54-2.61,0.78
		c0.39,0.66-0.51,1.36-1.27,1.44c-0.64,0.07-1.38,0.02-1.83,0.86c-0.1,0.15-0.16,0.34-0.23,0.56c-0.02-0.19-0.03-0.37-0.01-0.56
		c0.1-1.26,0.96-2.46,2.18-2.85c0.48-0.15,0.99-0.2,1.41-0.48c1.22-0.79,0.98-3.04,2.35-3.54c0.37-0.13,0.77-0.1,1.16-0.17
		c0.91-0.19,1.55-0.99,2.29-1.57c0.72-0.58,1.89-0.94,2.53-0.27c-0.23-1.21,1.2-2.08,2.43-2.17c1.22-0.09,2.55,0.18,3.61-0.44
		c0.32-0.17,0.58-0.43,0.93-0.54c1.18-0.39,2.3,1,3.54,0.9c0.6-0.05,1.13-0.44,1.73-0.46c0.46-0.01,0.9,0.2,1.33,0.35
		C252.1,266.65,253.3,266.63,254.35,266.23"/>
</g>
</svg>
